<svg id="icons" enable-background="new 0 0 64 64" height="512" viewBox="0 0 64 64" width="512" xmlns="http://www.w3.org/2000/svg"><path d="m63 7.502c.553 0 1-.447 1-1s-.447-1-1-1h-15c0-.553-.447-1-1-1s-1 .447-1 1h-28c0-.553-.447-1-1-1s-1 .447-1 1h-15c-.553 0-1 .447-1 1s.447 1 1 1h15v1h-15c-.553 0-1 .447-1 1s.447 1 1 1h15v3.049c-6.701.513-12 6.118-12 12.947v26c0 .005.003.009.003.013.007 3.853 3.143 6.987 6.997 6.987 3.859 0 7-3.141 7-7v-2.994c0-.004.002-.006.002-.01 0-2.755 2.24-4.996 4.993-4.999.003 0 .005.001.007.001 3.858 0 6.998-3.141 6.998-7v-.001-.001-10.994-.001-.001c0-6.829-5.299-12.434-12-12.947v-3.049h28v3.049c-6.701.514-12 6.118-12 12.947v26c0 .005.003.009.003.013.007 3.854 3.143 6.987 6.997 6.987 3.859 0 7-3.141 7-7v-2.994c0-.004.002-.006.002-.01 0-2.755 2.24-4.996 4.993-4.999.003 0 .005.001.007.001 3.858 0 6.998-3.141 6.998-7v-.001-.001-10.994-.001-.001c0-6.829-5.299-12.434-12-12.947v-3.049h15c.553 0 1-.447 1-1s-.447-1-1-1h-15v-1zm-46 12.998c.553 0 1-.447 1-1v-.931c3.939.494 7 3.857 7 7.929v7.001c-.001 1.082-.871 1.968-1.948 1.996-.017-.001-.033-.001-.05-.001-5.472 0-9.946 4.438-9.998 9.909-.002.033-.004.065-.004.091v3.004c0 1.103-.897 2-2 2-1.102 0-1.998-.897-1.998-2l-.002-22c0-4.071 3.061-7.435 7-7.929v.931c0 .553.447 1 1 1zm-6 36.998c-2.417 0-4.437-1.726-4.897-4.009 1.263 1.24 2.991 2.009 4.897 2.009s3.636-.769 4.9-2.01c-.462 2.284-2.482 4.01-4.9 4.01zm12.009-15.003c-.003 0-.005-.001-.007-.001-1.906 0-3.636.769-4.9 2.01.461-2.282 2.479-4.006 4.894-4.009.003 0 .005.001.007.001 1.906 0 3.635-.769 4.897-2.009-.461 2.282-2.478 4.005-4.891 4.008zm4.991-15.997v.002 6.996c0 2.755-2.238 4.996-4.991 4.999-.003 0-.005-.001-.007-.001-3.855 0-6.992 3.134-6.999 6.987 0 .004-.003.008-.003.013v3.004c0 2.757-2.243 5-5 5-2.756 0-4.998-2.243-4.998-5 0-.004-.002-.006-.002-.01v-21.99c0-5.727 4.402-10.439 10-10.947v1c-5.046.503-9 4.772-9 9.947l.002 22c0 2.206 1.794 4 3.998 4 2.206 0 4-1.794 4-4v-2.957c.002-.028.004-.058.004-.082.019-4.373 3.577-7.935 7.942-7.965.021.001.068.006.062.002 2.199-.005 3.989-1.797 3.992-4v-6.998c0-5.175-3.954-9.444-9-9.947v-1c5.598.508 10 5.22 10 10.947zm19-5.998c.553 0 1-.447 1-1v-.931c3.939.494 7 3.857 7 7.929v7.001c-.001 1.082-.871 1.968-1.948 1.996-.017-.001-.033-.001-.05-.001-5.472 0-9.946 4.438-9.998 9.909-.002.033-.004.065-.004.091v3.004c0 1.103-.897 2-2 2-1.102 0-1.998-.897-1.998-2l-.002-22c0-4.071 3.061-7.435 7-7.929v.931c0 .553.447 1 1 1zm-6 36.998c-2.417 0-4.437-1.726-4.897-4.009 1.263 1.24 2.991 2.009 4.897 2.009s3.636-.769 4.9-2.01c-.462 2.284-2.482 4.01-4.9 4.01zm12.009-15.003c-.003 0-.005-.001-.007-.001-1.906 0-3.636.769-4.9 2.01.461-2.282 2.479-4.006 4.894-4.009.003 0 .005.001.007.001 1.906 0 3.635-.769 4.897-2.009-.461 2.282-2.478 4.005-4.891 4.008zm4.991-15.997v.002 6.996c0 2.755-2.238 4.996-4.991 4.999-.003 0-.005-.001-.007-.001-3.855 0-6.992 3.134-6.999 6.987 0 .004-.003.008-.003.013v3.004c0 2.757-2.243 5-5 5-2.756 0-4.998-2.243-4.998-5 0-.004-.002-.006-.002-.01v-21.99c0-5.727 4.402-10.439 10-10.947v1c-5.046.503-9 4.772-9 9.947l.002 22c0 2.206 1.794 4 3.998 4 2.206 0 4-1.794 4-4v-2.957c.002-.028.004-.058.004-.082.019-4.373 3.577-7.935 7.942-7.965.02.001.051.006.062.002 2.199-.005 3.989-1.797 3.992-4v-6.998c0-5.175-3.954-9.444-9-9.947v-1c5.598.508 10 5.22 10 10.947zm-12-17.996h-28v-1h28z"/><path d="m43.002 26.502c0 2.206 1.794 4 4 4s4-1.794 4-4-1.794-4-4-4-4 1.794-4 4zm4-2c1.103 0 2 .897 2 2s-.897 2-2 2-2-.897-2-2 .897-2 2-2z"/><path d="m13.002 26.502c0 2.206 1.794 4 4 4s4-1.794 4-4-1.794-4-4-4-4 1.794-4 4zm4-2c1.103 0 2 .897 2 2s-.897 2-2 2-2-.897-2-2 .897-2 2-2z"/></svg>