<?xml version="1.0"?>
<svg xmlns="http://www.w3.org/2000/svg" viewBox="0 0 64 64" width="512" height="512"><g id="outline"><path d="M61,47H51.875L48.223,19.6A3.011,3.011,0,0,0,45.249,17h-9.8A3.959,3.959,0,0,0,36,15a4,4,0,0,0-3.09-3.886A5,5,0,0,0,28,7H24a1,1,0,0,0-1,1,5.006,5.006,0,0,0,5,5h.556a3.875,3.875,0,0,0,0,4h-9.8a3.011,3.011,0,0,0-2.974,2.6L12.125,47H3a1,1,0,0,0-1,1v4a1,1,0,0,0,1,1H8.7l5.748,3.832A1.006,1.006,0,0,0,15,57H49a1.006,1.006,0,0,0,.555-.168L55.3,53H61a1,1,0,0,0,1-1V48A1,1,0,0,0,61,47ZM25.171,9H28a3.006,3.006,0,0,1,2.829,2H28A3.006,3.006,0,0,1,25.171,9ZM30,15a2,2,0,1,1,2,2A2,2,0,0,1,30,15ZM18.751,19h5.631l-2.277,4.553,1.79.894L26.618,19h2.287L28,28.909,30,29.091,30.913,19h2.174L34,29.091,36,28.909,35.1,19h2.287L40.1,24.447l1.79-.894L39.618,19h5.631a1,1,0,0,1,.991.867L47.191,27H45a3,3,0,0,0-3,3V41a2,2,0,0,1-2.108,2A2.119,2.119,0,0,1,38,40.83V35a4,4,0,0,0-4.214-4A4.089,4.089,0,0,0,30,35.17V38a2,2,0,0,1-2.108,2A2.119,2.119,0,0,1,26,37.83V30a3,3,0,0,0-3-3H16.809l.951-7.132A1,1,0,0,1,18.751,19ZM16.542,29H23a1,1,0,0,1,1,1v7.83A4.09,4.09,0,0,0,27.787,42,4,4,0,0,0,32,38V35.17A2.119,2.119,0,0,1,33.891,33,2,2,0,0,1,36,35v5.83A4.09,4.09,0,0,0,39.787,45c.072,0,.144.005.215.005a3.968,3.968,0,0,0,2.752-1.1A4.017,4.017,0,0,0,44,41V30a1,1,0,0,1,1-1h2.458l2.4,18H14.143ZM48.7,55H15.3l-3-2H51.7ZM60,51H4V49H60Z"/><rect x="18" y="35" width="2" height="2"/><rect x="20" y="40" width="2" height="2"/></g></svg>
