<svg enable-background="new 0 0 60 30" height="512" viewBox="0 0 60 30" width="512" xmlns="http://www.w3.org/2000/svg"><path d="m45 30c-8.271 0-15-6.729-15-15s6.729-15 15-15 15 6.729 15 15-6.729 15-15 15zm0-28c-7.168 0-13 5.832-13 13s5.832 13 13 13 13-5.832 13-13-5.832-13-13-13z"/><path d="m2 25c-.329 0-.641-.163-.828-.44-.212-.313-.229-.718-.044-1.048.122-.225 1.165-2.29-.739-3.76-.261-.202-.406-.519-.387-.848.019-.329.198-.628.48-.799.054-.035 1.518-.988 1.518-3.105 0-2.159-1.503-3.096-1.519-3.105-.282-.171-.461-.47-.48-.799-.018-.329.126-.646.387-.848 1.962-1.516.79-3.669.739-3.76-.184-.33-.167-.735.045-1.048.211-.313.583-.482.956-.432 5.933.764 7.764 7.465 7.839 7.75.022.083.033.169.033.255v4.12c0 .088-.012.175-.034.26-.075.279-1.909 6.835-7.838 7.599-.043.006-.086.008-.128.008zm.473-6.004c.951 1.151 1.139 2.46 1.004 3.572 3.045-1.322 4.305-4.893 4.523-5.582v-3.831c-.214-.694-1.473-4.367-4.521-5.716.133 1.11-.056 2.416-1.005 3.565.699.761 1.526 2.067 1.526 3.996s-.827 3.235-1.527 3.996z"/><path d="m45 30h-22c-8.271 0-15-6.729-15-15s6.729-15 15-15h22c.552 0 1 .448 1 1s-.448 1-1 1c-7.168 0-13 5.832-13 13s5.832 13 13 13c.552 0 1 .448 1 1s-.448 1-1 1zm-22-28c-7.168 0-13 5.832-13 13s5.832 13 13 13h14.522c-4.492-2.594-7.522-7.45-7.522-13s3.03-10.406 7.522-13z"/><path d="m30.04 6h-9.04c-.552 0-1-.448-1-1s.448-1 1-1h9.04c.552 0 1 .448 1 1s-.448 1-1 1z"/><path d="m13 16s-.001 0-.002 0c-.552-.001-.999-.45-.998-1.002.007-4.068 1.469-6.961 4.468-8.845.468-.293 1.085-.152 1.379.315.294.468.153 1.085-.315 1.379-2.404 1.509-3.526 3.783-3.532 7.155-.001.551-.448.998-1 .998z"/><path d="m53.5 11c-3.033 0-5.5-2.467-5.5-5.5 0-1.561.682-3.059 1.871-4.109l.475-.42.583.251c2.974 1.282 5.498 3.546 7.108 6.376l.315.553-.368.52c-1.033 1.458-2.709 2.329-4.484 2.329zm-2.741-7.653c-.493.614-.759 1.36-.759 2.153 0 1.93 1.57 3.5 3.5 3.5.916 0 1.792-.367 2.441-1.003-1.274-1.986-3.081-3.606-5.182-4.65z"/><path d="m40.309 29.244-.505-.187c-2.957-1.093-5.544-3.132-7.286-5.742l-.298-.447.208-.496c.86-2.048 2.851-3.372 5.072-3.372 3.033 0 5.5 2.467 5.5 5.5 0 1.76-.823 3.373-2.257 4.426zm-5.796-6.567c1.384 1.881 3.289 3.381 5.451 4.293.664-.654 1.036-1.53 1.036-2.47 0-1.93-1.57-3.5-3.5-3.5-1.235 0-2.358.644-2.987 1.677z"/><path d="m40 14c-2.206 0-4-1.794-4-4s1.794-4 4-4 4 1.794 4 4-1.794 4-4 4zm0-6c-1.103 0-2 .897-2 2s.897 2 2 2 2-.897 2-2-.897-2-2-2z"/><path d="m50 23c-2.206 0-4-1.794-4-4s1.794-4 4-4 4 1.794 4 4-1.794 4-4 4zm0-6c-1.103 0-2 .897-2 2s.897 2 2 2 2-.897 2-2-.897-2-2-2z"/></svg>