<svg height="512pt" viewBox="0 0 512 512" width="512pt" xmlns="http://www.w3.org/2000/svg"><path d="m190 140c0 8.285156-6.714844 15-15 15s-15-6.714844-15-15 6.714844-15 15-15 15 6.714844 15 15zm0 0"/><path d="m500.308594 339.089844c7.5625-21.648438 11.691406-44.894532 11.691406-69.089844 0-115.792969-94.207031-210-210-210h-257c-8.269531 0-15-6.730469-15-15s6.730469-15 15-15h150c8.285156 0 15-6.714844 15-15s-6.714844-15-15-15h-150c-24.8125 0-45 20.1875-45 45 0 19.703125 12.730469 36.476562 30.394531 42.554688 6.46875 106.519531 94.640625 191.332031 202.511719 192.417968.175781.007813.347656.027344.527344.027344.261718 0 .519531-.007812.78125-.011719.261718.003907.523437.011719.785156.011719h76.5c23.984375 0 43.5 19.515625 43.5 43.5s-19.515625 43.5-43.5 43.5h-37.269531c-13.101563-7.820312-56.644531-32-94.230469-32-21.871094 0-38.980469 9.308594-48.175781 26.203125-6.632813 12.191406-6.824219 24.214844-6.824219 25.546875s.191406 13.355469 6.824219 25.546875c2.296875 4.214844 5.082031 7.957031 8.316406 11.203125-3.234375 3.246094-6.023437 6.988281-8.316406 11.203125-6.632813 12.191406-6.824219 24.214844-6.824219 25.546875s.191406 13.355469 6.824219 25.546875c9.195312 16.894531 26.304687 26.203125 48.175781 26.203125 37.585938 0 81.128906-24.175781 94.230469-32h27.769531c90.894531 0 168.476562-58.054688 197.644531-139.027344.265625-.605468.484375-1.238281.664063-1.882812zm-25.378906-19.089844h-90.019532c-.636718-13.519531-4.949218-26.089844-11.953125-36.746094l91.253907-91.25c11.394531 23.609375 17.789062 50.070313 17.789062 77.996094 0 17.34375-2.472656 34.117188-7.070312 50zm-163.429688-70h-2.035156c21.847656-20.378906 35.535156-49.402344 35.535156-81.566406 0-8.285156-6.714844-15-15-15s-15 6.714844-15 15c0 44.804687-36.320312 81.28125-81.0625 81.554687-90.960938-.546875-165.695312-70.835937-173.300781-159.988281h241.363281c60.269531 0 113.710938 29.777344 146.398438 75.390625l-96.65625 96.652344c-11.566407-7.601563-25.394532-12.042969-40.242188-12.042969zm-152.933594 124.855469c1.441406-2.4375 5.835938-9.855469 21.433594-9.855469 26.992188 0 60.699219 17.390625 75 25.53125v17.96875h-75c-15.597656 0-19.992188-7.417969-21.433594-9.855469-3.070312-5.183593-3.503906-10.851562-3.558594-11.894531.054688-1.042969.488282-6.710938 3.558594-11.894531zm21.433594 107.144531c-15.597656 0-19.992188-7.417969-21.433594-9.855469-3.070312-5.183593-3.503906-10.851562-3.558594-11.894531.054688-1.042969.488282-6.710938 3.558594-11.894531 1.441406-2.4375 5.835938-9.855469 21.433594-9.855469h75v17.980469c-5.019531 2.859375-12.453125 6.863281-21.234375 10.878906-20.957031 9.578125-39.546875 14.640625-53.765625 14.640625zm105-32v-53h26.5c5.933594 0 11.699219-.726562 17.226562-2.058594l41.582032 41.582032c-21.074219 8.675781-44.140625 13.476562-68.308594 13.476562zm113.25-27.960938-41.042969-41.042968c10.125-8.066406 18.074219-18.738282 22.828125-30.996094h83.175782c-14.707032 29.515625-37.277344 54.449219-64.960938 72.039062zm0 0"/></svg>